<svg width="75" height="75" viewBox="0 0 75 75" fill="none" xmlns="http://www.w3.org/2000/svg">
<circle cx="37.5" cy="37.5" r="37.5" fill="#001D3D"/>
<circle cx="38" cy="38" r="29.5" fill="#001D3D" stroke="white"/>
<g clip-path="url(#clip0_490_526)">
<path fill-rule="evenodd" clip-rule="evenodd" d="M48.5865 45.9274C47.8765 48.0848 45.0951 49.1607 43.1079 48.9813C40.3939 48.736 37.4407 47.2965 35.1989 45.711C31.9038 43.3803 28.8172 39.7752 27.0186 35.9495C25.7475 33.2462 25.4623 29.9226 27.3529 27.4585C28.0521 26.5477 28.808 26.0613 29.9442 26.0045C31.5205 25.9279 31.7413 26.8296 32.2825 28.2342C32.6858 29.2845 33.224 30.3559 33.5245 31.4446C34.0873 33.4762 32.12 33.5612 31.8716 35.2218C31.7167 36.269 32.9863 37.6735 33.5598 38.4202C34.6837 39.883 36.0346 41.1447 37.5587 42.1045C38.4312 42.655 39.8403 43.647 40.8401 43.0996C42.3795 42.2562 42.2339 39.6604 44.3867 40.539C45.5014 40.9929 46.5809 41.6479 47.645 42.2213C49.2903 43.1061 49.2136 44.023 48.5865 45.9274C49.0557 44.5045 48.1173 47.3503 48.5865 45.9274Z" fill="white"/>
</g>
<defs>
<clipPath id="clip0_490_526">
<rect width="23" height="23" fill="white" transform="translate(26 26)"/>
</clipPath>
</defs>
</svg>
