<svg width="35" height="35" viewBox="0 0 35 35" fill="none" xmlns="http://www.w3.org/2000/svg">
<circle cx="17.5" cy="17.5" r="17.5" fill="#4766AD" fill-opacity="0.1"/>
<path fill-rule="evenodd" clip-rule="evenodd" d="M13.9892 9.10432C12.6055 9.16675 11.4062 9.50505 10.4378 10.4694C9.46597 11.4388 9.13187 12.6428 9.06928 14.0121C9.03038 14.8668 8.80287 21.3235 9.46258 23.0168C9.90747 24.1591 10.7837 25.0375 11.9365 25.4838C12.4744 25.693 13.0884 25.8346 13.9892 25.876C21.5209 26.2168 24.3128 26.0313 25.4902 23.0168C25.6991 22.4802 25.8428 21.8667 25.8826 20.9682C26.2268 13.4172 25.8268 11.7805 24.5141 10.4694C23.473 9.4308 22.2483 8.72382 13.9892 9.10432ZM14.0585 24.3574C13.2339 24.3202 12.7865 24.1828 12.4879 24.0673C11.7369 23.7753 11.1727 23.2135 10.8826 22.4669C10.3802 21.1802 10.5469 15.0694 10.5917 14.0806C10.6357 13.1121 10.8319 12.2269 11.5153 11.5435C12.3611 10.6998 13.4538 10.2863 20.8942 10.6221C21.8651 10.666 22.7524 10.8618 23.4374 11.5435C24.2832 12.3872 24.7027 13.4883 24.361 20.9001C24.3238 21.7227 24.186 22.169 24.0701 22.4669C23.3047 24.4284 21.5437 24.7007 14.0585 24.3574ZM20.9762 12.9862C20.9762 13.5447 21.4304 13.9989 21.9912 13.9989C22.5519 13.9989 23.0069 13.5447 23.0069 12.9862C23.0069 12.4277 22.5519 11.9739 21.9912 11.9739C21.4304 11.9739 20.9762 12.4277 20.9762 12.9862ZM13.1333 17.4897C13.1333 19.8824 15.0777 21.8223 17.4764 21.8223C19.875 21.8223 21.8195 19.8824 21.8195 17.4897C21.8195 15.097 19.875 13.1584 17.4764 13.1584C15.0777 13.1584 13.1333 15.097 13.1333 17.4897ZM14.6574 17.4897C14.6574 15.9374 15.9193 14.6779 17.4764 14.6779C19.0335 14.6779 20.2954 15.9374 20.2954 17.4897C20.2954 19.043 19.0335 20.3029 17.4764 20.3029C15.9193 20.3029 14.6574 19.043 14.6574 17.4897Z" fill="#434656"/>
</svg>
