<svg width="35" height="35" viewBox="0 0 35 35" fill="none" xmlns="http://www.w3.org/2000/svg">
<circle cx="17.5" cy="17.5" r="17.5" fill="#4766AD" fill-opacity="0.1"/>
<path fill-rule="evenodd" clip-rule="evenodd" d="M27 25H23.6V19.4008C23.6 17.8648 22.8801 17.0078 21.5889 17.0078C20.1839 17.0078 19.35 17.9008 19.35 19.4008V25H15.95V14.6H19.35V15.7695C19.35 15.7695 20.4167 14.0078 22.8205 14.0078C25.2252 14.0078 27 15.3889 27 18.2465V25ZM12.0757 12.9367C10.9291 12.9367 10 12.0552 10 10.968C10 9.88157 10.9291 9 12.0757 9C13.2215 9 14.1505 9.88157 14.1505 10.968C14.1514 12.0552 13.2215 12.9367 12.0757 12.9367ZM10 25H14.25V14.6H10V25Z" fill="#434656"/>
</svg>
