<svg width="35" height="35" viewBox="0 0 35 35" fill="none" xmlns="http://www.w3.org/2000/svg">
<circle cx="17.5" cy="17.5" r="17.5" fill="#4766AD" fill-opacity="0.1"/>
<path fill-rule="evenodd" clip-rule="evenodd" d="M15.032 25C21.0696 25 24.372 19.9978 24.372 15.6605C24.372 15.5181 24.372 15.3768 24.3624 15.236C25.0048 14.772 25.5592 14.1959 26 13.5368C25.4016 13.8024 24.7656 13.9765 24.1152 14.0533C24.8 13.643 25.3128 12.9982 25.5584 12.2375C24.9136 12.6199 24.2088 12.8897 23.4736 13.0345C22.2304 11.713 20.1512 11.649 18.8288 12.8921C17.9768 13.6936 17.6144 14.8887 17.8792 16.0287C15.24 15.8959 12.7808 14.6496 11.1136 12.5993C10.2424 14.0992 10.688 16.0173 12.1304 16.9804C11.608 16.9652 11.0968 16.8246 10.64 16.5702V16.6119C10.6408 18.1742 11.7424 19.5194 13.2736 19.829C12.7904 19.961 12.2832 19.9801 11.792 19.8849C12.2216 21.2224 13.4544 22.1385 14.8584 22.1649C13.696 23.0785 12.26 23.5745 10.7816 23.5729C10.5208 23.5721 10.26 23.5569 10 23.5257C11.5016 24.4889 13.248 25 15.032 24.9976" fill="#434656"/>
</svg>
