<svg width="36" height="35" viewBox="0 0 36 35" fill="none" xmlns="http://www.w3.org/2000/svg">
<ellipse cx="18" cy="17.5" rx="18" ry="17.5" fill="#4766AD" fill-opacity="0.1"/>
<path fill-rule="evenodd" clip-rule="evenodd" d="M15.7902 20.2167V15.4065C17.4835 16.2101 18.7951 16.9863 20.3462 17.8231C19.0668 18.5386 17.4835 19.3414 15.7902 20.2167ZM25.2274 13.0142C24.9352 12.6262 24.4374 12.3241 23.9074 12.2241C22.3495 11.9257 12.6303 11.9249 11.0733 12.2241C10.6482 12.3044 10.2698 12.4986 9.94463 12.8004C8.57469 14.0826 9.00397 20.9586 9.33418 22.0724C9.47303 22.5545 9.65254 22.9022 9.8786 23.1304C10.1699 23.4322 10.5686 23.64 11.0267 23.7331C12.3094 24.0007 18.9178 24.1503 23.8803 23.7733C24.3375 23.693 24.7422 23.4785 25.0614 23.1639C26.328 21.8869 26.2417 14.6247 25.2274 13.0142Z" fill="#434656"/>
</svg>
